<?xml version="1.0" encoding="UTF-8"?>
<svg id="Layer_1" xmlns="http://www.w3.org/2000/svg" version="1.1" viewBox="259.5 207.5 198 207">
  <!-- Generator: Adobe Illustrator 30.2.1, SVG Export Plug-In . SVG Version: 2.1.1 Build 1)  -->
  <defs>
    <style>
      .st0 {
        fill: #231f20;
      }
    </style>
  </defs>
  <g>
    <path class="st0" d="M406.17,258.76c5.92,0,11.63,1.32,16.02,3.95,2.63,1.54,3.73,3.07,3.73,4.61,0,8.78-40.81,14.7-40.81,14.7v16.46c25.01,0,43.66-16.46,43.66-28.74,0-7.24-6.58-12.95-22.16-12.95-10.99,0-19.8,2.35-26.81,5.81v3.37c8.37-4.64,17.81-7.21,26.38-7.21Z"/>
    <path class="st0" d="M347.83,310.14c-1.13-.75-2.31-1.42-3.47-1.85-.59-.22-7.52-.17-7.52-.16v106.2c5.49,0,10.53-2.19,14.04-5.71,3.73-3.51,5.92-8.56,5.92-14.04,0,0,0-74.45,0-74.46,0-.66-1.17-2.01-1.53-2.58-.58-.9-1.19-1.78-1.87-2.61-1.57-1.91-3.52-3.43-5.57-4.78Z"/>
    <path class="st0" d="M359.83,280.29c-.55.84-1.06,1.66-1.51,2.44.58.99,1.08,1.93,1.51,2.79v-5.23Z"/>
    <path class="st0" d="M347.84,304.15c.41-.29.82-.58,1.22-.89,1.93-1.47,3.75-3.17,5.29-5.07.79-.97,1.51-2,2.16-3.07.66-1.08,1.37-2.17,1.71-3.41.06-.22.11-.51.13-.61.2-1.01.29-1.53.18-2.06-.09-.41-.26-.67-.43-.94-.82-1.31-.73-1.36-1.57-2.93-1.3-2.45-2.87-4.75-4.63-6.89-3.58-4.34-7.95-8-12.73-10.95-.26-.16-2.34-1.17-2.34-1.37v40.19h3.2c2.25,0,2.16-.03,2.52,0,.87.07,1.23.18,1.85.03.35-.09.75-.32,1.53-.78.54-.32,1.17-.72,1.92-1.25Z"/>
    <path class="st0" d="M356.8,280.29v-72.65c-10.97,0-19.97,8.78-19.97,19.75v35.21c9.81,4.84,16.12,11.85,19.97,17.7Z"/>
    <path class="st0" d="M442.37,348.5c-5.27-41.69-41.91-42.35-44.1-42.35h-18.48v1.98c1.05,0,2.1,0,3.12,0,7.24,0,13.38,0,14.26.22,31.6,4.83,25.23,31.6,31.6,71.09,2.19,13.38,6.14,21.72,10.53,26.99,4.39,5.05,10.97,7.9,17.77,7.9,0,0-9.22-22.6-14.7-65.82Z"/>
    <path class="st0" d="M358.31,282.73c-.46-.78-.96-1.6-1.51-2.44v5.24c.43-.86.94-1.8,1.51-2.8Z"/>
    <path class="st0" d="M358.44,288.99s.02.16.02.31c0,.67-.2,1.15-.24,1.24-.34.94.73,2.34,1.14,3.13.6,1.18,1.29,2.32,2.05,3.4,2.1,2.96,4.73,5.39,7.8,7.31,1.05.59,2.1,1.18,3.15,1.77h7.43v-40.19c0,.18-1.85,1.07-2.08,1.21-.71.44-1.42.89-2.11,1.35-1.39.93-2.73,1.92-4.02,2.98-2.57,2.09-4.94,4.42-7.03,6.99-1.39,1.7-2.65,3.51-3.75,5.41-.54.93-1.05,1.89-1.51,2.86-.36.75-.81,1.46-.84,2.22Z"/>
    <path class="st0" d="M379.79,262.59v-35.21c0-10.97-9-19.75-19.97-19.75v72.66c3.85-5.85,10.16-12.86,19.97-17.7Z"/>
    <path class="st0" d="M310.02,256.78c-15.58,0-22.16,5.71-22.16,12.95,0,12.29,18.65,28.74,43.66,28.74v-16.46s-40.81-5.92-40.81-14.7c0-1.53,1.1-3.07,3.73-4.61,4.39-2.63,10.09-3.95,16.02-3.95,8.57,0,18.01,2.57,26.38,7.21v-3.37c-7.02-3.46-15.82-5.81-26.81-5.81Z"/>
    <path class="st0" d="M318.36,306.15c-2.19,0-38.84.66-44.1,42.35-5.49,43.23-14.7,65.82-14.7,65.82,6.8,0,13.38-2.85,17.77-7.9,4.39-5.27,8.34-13.6,10.53-26.99,6.36-39.5,0-66.26,31.6-71.09.88-.22,7.02-.22,14.26-.22,1.02,0,2.07,0,3.12,0v-1.98h-18.48Z"/>
    <path class="st0" d="M369.18,310.13c-1.63,1.05-3.18,2.24-4.56,3.61-1.02,1.01-1.95,2.11-2.75,3.3-.39.58-.75,1.19-1.07,1.82s-.8,1.25-.98,1.97c-.08.33,0,.8,0,1.14v72.61c0,5.49,2.19,10.53,5.92,14.04,3.51,3.51,8.56,5.71,14.04,5.71v-106.2c-1.71-.04-3.14-.02-4.22,0-.68.02-.98-.01-1.57,0-.94.02-1.66.18-2.5.63-.79.43-1.57.88-2.32,1.37Z"/>
  </g>
  <path class="st0" d="M336.92,261.18v9.7c0,.97,1.51.97,1.51,0v-9.7c0-.97-1.51-.97-1.51,0h0Z"/>
  <path class="st0" d="M336.84,262.61c0,1.56,0,3.12,0,4.68,0,.4.35.77.76.76s.75-.33.76-.76c.01-1.56.02-3.12,0-4.68,0-.4-.35-.77-.76-.76s-.76.33-.76.76h0Z"/>
  <path class="st0" d="M338.52,261.58c-.57,2.97-.99,5.97-1.26,8.98l1.49-.2c-.2-1.27.29-2.55.61-3.75.35-1.3.64-2.61.89-3.93l-1.49-.2c0,2.15,0,4.29.01,6.44,0,.97,1.51.98,1.51,0,0-2.15,0-4.29-.01-6.44,0-.83-1.33-1.06-1.49-.2-.26,1.43-.59,2.85-.98,4.26s-.75,2.77-.52,4.23c.06.37.5.59.83.54.39-.06.62-.36.66-.74.26-2.88.66-5.74,1.2-8.58.18-.95-1.28-1.36-1.46-.4h0Z"/>
  <path class="st0" d="M339.01,267.62c1.86,2.09,3.95,3.96,6.03,5.84,2.24,2.02,4.47,4.04,6.71,6.06.88.8,2.35.93,3.21,0,.8-.87.94-2.36,0-3.21-2.24-2.02-4.47-4.04-6.71-6.06-2.08-1.88-4.17-3.75-6.03-5.84-.79-.89-2.41-.87-3.21,0-.87.95-.84,2.26,0,3.21h0Z"/>
  <path class="st0" d="M356.52,283.94v-4.42c0-.58-.25-1.19-.66-1.6s-1.04-.69-1.6-.66-1.2.22-1.6.66-.66.99-.66,1.6v4.42c0,.58.25,1.19.66,1.6s1.04.69,1.6.66,1.2-.22,1.6-.66.66-.99.66-1.6h0Z"/>
  <path class="st0" d="M364.7,283.53c-.03-.62-.03-1.24.03-1.85.01-.16.06-.49.01-.16.02-.14.05-.29.07-.43.06-.32.14-.64.22-.96s.18-.63.29-.94c.05-.14.1-.27.15-.41-.09.22-.03.07.03-.06.28-.59.6-1.17.96-1.71.08-.12.16-.23.25-.35-.14.19-.05.06.04-.05.21-.25.43-.48.66-.71.1-.1.21-.19.32-.29.29-.26-.42.29.15-.12.24-.17.49-.34.73-.52.63-.47,1.17-.98,1.74-1.52.1-.1.21-.19.32-.29-.18.16-.06.06.06-.03l.19-.11c-.18.07-.2.07-.05.03.34-.08-.49-.02.13,0,1.19.06,2.32-1.09,2.27-2.27-.06-1.28-1-2.21-2.27-2.27-2.02-.1-3.34,1.29-4.71,2.54-.12.1-.11.09.03,0l-.18.13c-.15.11-.3.21-.46.32-.4.28-.79.57-1.16.89-.66.57-1.21,1.26-1.73,1.97-1.89,2.6-2.81,5.96-2.64,9.15.06,1.18,1,2.33,2.27,2.27,1.18-.05,2.34-1,2.27-2.27h0Z"/>
  <path class="st0" d="M375.21,263.53c-1.02,1.21-2.17,2.31-3.42,3.29l.46-.35c-.52.4-1.05.76-1.59,1.13-.37.26-.75.53-1.07.85s-.58.71-.84,1.09l.35-.46c-.06.07-.11.14-.18.2l.46-.35s-.1.07-.15.1c-1.05.55-1.46,2.11-.81,3.1.69,1.07,1.98,1.41,3.1.81.66-.35,1-.94,1.43-1.51l-.35.46c.16-.19.33-.35.53-.51l-.46.35c.46-.36.96-.66,1.43-1.01.61-.45,1.21-.92,1.79-1.41.92-.79,1.76-1.65,2.54-2.57.4-.47.66-.97.66-1.6,0-.56-.25-1.22-.66-1.6s-1-.69-1.6-.66c-.57.03-1.22.21-1.6.66h0Z"/>
  <path class="st0" d="M377.4,267.21c2.92,0,2.92-4.54,0-4.54s-2.92,4.54,0,4.54h0Z"/>
  <path class="st0" d="M377.58,266.54c2.92,0,2.92-4.54,0-4.54s-2.92,4.54,0,4.54h0Z"/>
  <path class="st0" d="M377.83,266.72c2.92,0,2.92-4.54,0-4.54s-2.92,4.54,0,4.54h0Z"/>
  <path class="st0" d="M377.61,267.12c2.92,0,2.92-4.54,0-4.54s-2.92,4.54,0,4.54h0Z"/>
  <path class="st0" d="M377.67,267.23c2.92,0,2.92-4.54,0-4.54s-2.92,4.54,0,4.54h0Z"/>
  <path class="st0" d="M379.15,266.29c.97,0,.97-1.51,0-1.51s-.97,1.51,0,1.51h0Z"/>
  <path class="st0" d="M379.16,266.28c.97,0,.97-1.51,0-1.51s-.97,1.51,0,1.51h0Z"/>
  <path class="st0" d="M379.19,266.28c.97,0,.97-1.51,0-1.51s-.97,1.51,0,1.51h0Z"/>
  <path class="st0" d="M379.37,263.98c.97,0,.97-1.51,0-1.51s-.97,1.51,0,1.51h0Z"/>
  <path class="st0" d="M359.92,280.14c-.04-.06,0-.04-.01.04,0-.03-.03.14-.04.17-.04.23-.06.47-.07.71-.02.46-.03.93-.05,1.39-.03.96-.07,1.92.15,2.86l1.11-.85c-.05-.04-.1-.08-.15-.11-.24-.18-.63-.11-.84.06-.25.2-.33.49-.27.8.07.33.19.64.35.94.19.36.69.47,1.03.27.37-.21.46-.67.27-1.03-.1-.19-.15-.37-.2-.58l-1.11.85c.05.04.1.08.15.11.24.18.63.11.84-.06.24-.19.34-.49.27-.8-.22-.91-.12-1.87-.09-2.8.01-.45,0-.92.05-1.36.07-.49.18-.92-.1-1.38-.52-.82-1.83-.06-1.31.76h0Z"/>
  <path class="st0" d="M360.58,281.2c.97,0,.97-1.51,0-1.51s-.97,1.51,0,1.51h0Z"/>
  <path class="st0" d="M360.52,281.26c.97,0,.97-1.51,0-1.51s-.97,1.51,0,1.51h0Z"/>
  <path class="st0" d="M356.65,283.09c-.1,0-.2,0-.3,0l.2.03h-.04c.11.05.22.12.33.18l.15.25.03.2s0-.05,0-.07l-.03.2c.03-.12-.09.16-.02.04-.08.09-.1.12-.06.08.01-.01.03-.03.04-.04,0,0-.17.12-.04.04.08-.05.15-.1.21-.16.13-.13.19-.29.23-.46v-.04c.04-.07.03-.05-.02.07l.02-.04c.04-.07.03-.05-.04.05.11-.13.18-.26.21-.43.02-.15,0-.35-.09-.48-.01-.02-.03-.05-.04-.06.08.09.05.15.03.05-.01-.06-.02-.12-.03-.18-.03-.18-.12-.36-.2-.52-.03-.05-.05-.12-.09-.17.09.13.04.09.01.03-.01-.03-.02-.06-.03-.09-.05-.14-.08-.29-.1-.44l.03.2c0-.06-.01-.13-.02-.19-.03-.39-.33-.78-.76-.76-.39.02-.78.33-.76.76.03.45.14.86.33,1.27.03.07.07.15.11.22.05.07-.04-.15,0-.02.01.04.02.08.03.12.03.19.07.38.19.55l.12-.92c-.12.14-.2.25-.27.42-.05.11-.06.22-.11.32l.19-.33s.15-.1.07-.05c-.05.03-.1.06-.14.1-.06.05-.12.09-.17.15-.18.21-.32.46-.32.74,0,.32.14.62.42.78.22.13.48.12.72.12.4,0,.77-.35.76-.76s-.33-.76-.76-.76h0Z"/>
  <path class="st0" d="M356.01,281.05c.97,0,.97-1.51,0-1.51s-.97,1.51,0,1.51h0Z"/>
  <path class="st0" d="M356.08,281.21c.97,0,.97-1.51,0-1.51s-.97,1.51,0,1.51h0Z"/>
  <path class="st0" d="M356.09,281.33c.97,0,.97-1.51,0-1.51s-.97,1.51,0,1.51h0Z"/>
  <path class="st0" d="M356.16,285.32c.97,0,.97-1.51,0-1.51s-.97,1.51,0,1.51h0Z"/>
  <path class="st0" d="M356.14,285.55c.97,0,.97-1.51,0-1.51s-.97,1.51,0,1.51h0Z"/>
  <path class="st0" d="M356.2,285.79c.97,0,.97-1.51,0-1.51s-.97,1.51,0,1.51h0Z"/>
  <path class="st0" d="M356.08,286.02c.97,0,.97-1.51,0-1.51s-.97,1.51,0,1.51h0Z"/>
  <path class="st0" d="M356.14,285.9c.97,0,.97-1.51,0-1.51s-.97,1.51,0,1.51h0Z"/>
  <path class="st0" d="M356.14,285.91c.97,0,.97-1.51,0-1.51s-.97,1.51,0,1.51h0Z"/>
  <path class="st0" d="M356.15,285.91c.97,0,.97-1.51,0-1.51s-.97,1.51,0,1.51h0Z"/>
  <path class="st0" d="M356.14,285.9c.97,0,.97-1.51,0-1.51s-.97,1.51,0,1.51h0Z"/>
  <path class="st0" d="M359.79,285.64l-2.79-.03.2,1.49c1.41-.4,2.8-.86,4.16-1.4.35-.14.6-.43.54-.83-.05-.35-.36-.68-.74-.66-2.13.15-4.24.51-6.34.88-.37.06-.59.49-.54.83.06.37.36.65.74.66l2.37.04c.41,0,.76-.35.76-.76,0-.43-.35-.73-.76-.76-.84-.05-1.64-.31-2.37-.74l-.38,1.41c1.58-.08,3.16-.18,4.7-.55.3-.07.59-.41.56-.73-.06-.63-.47-.93-1.06-1.08-.55-.13-1.1-.26-1.65-.39l-.4,1.46c.19.03.37.07.54.15.39.19.79.09,1.03-.27.03-.05.07-.05.14-.05.42,0,.74-.34.76-.76v-.02c.01-.36-.25-.61-.55-.73-.2-.08-.45-.03-.64.08-.32.19-.4.51-.35.85.04.25.23.4.39.58.12.14.22.3.31.46s.17.33.24.51c.03.07.05.13.08.2l-.02-.06s-.07.14-.09.18c-.14.23-.35.41-.63.54-.21.1-.55.14-.74.11v1.46c.31-.05.65,0,.93.13.37.17.81.1,1.03-.27.19-.33.1-.86-.27-1.03-.68-.32-1.36-.4-2.1-.29s-.72,1.33,0,1.46c1.17.21,2.33-.26,3-1.24.15-.22.29-.5.35-.76.09-.37-.03-.69-.17-1.03-.26-.63-.6-1.11-1.04-1.63l.19.33v-.05c-.12.28-.24.57-.35.85h.02c-.19.01-.39.04-.58.06h.03c-.19-.23-.37-.48-.56-.72v.02c.25-.25.5-.5.76-.76-.61,0-1.11.3-1.45.8l1.03-.27c-.29-.14-.58-.25-.9-.3-.4-.06-.81.1-.93.53-.11.38.13.83.53.93.36.09.72.17,1.08.26.17.04.34.08.51.12.06.01.17.06.23.06.07,0-.04.05-.12-.11l-.1-.38v.07c.19-.24.38-.49.56-.73-1.41.34-2.85.42-4.3.5-.73.04-1.05,1.02-.38,1.41.96.56,2.02.88,3.13.95v-1.51l-2.37-.04.2,1.49c1.97-.35,3.94-.69,5.94-.83l-.2-1.49c-1.36.53-2.75,1-4.16,1.4-.82.23-.66,1.48.2,1.49l2.79.03c.97.01.97-1.5,0-1.51h0Z"/>
  <path class="st0" d="M357.47,287.94h0c0-.06-.02-.13-.03-.19,0,.02,0,.03,0,.05l.03-.2s-.01.06-.02.09c-.01.09-.04.19-.03.29,0,.07.02.15.03.22,0,0,0,.02,0,.02,0,.02,0,.03.01.05.01.03.02.06.04.1.02.1.07.18.14.26.05.08.12.15.21.19.09.06.18.09.28.09.1.02.2.02.3-.01l.18-.08c.11-.07.2-.16.27-.27l.08-.18c.04-.13.04-.27,0-.4-.02-.06-.04-.11-.05-.17l.03.2s0-.06,0-.09l-.03.2s.01-.06.02-.09c.01-.08.03-.16.03-.24s-.02-.16-.03-.24c-.02-.1-.07-.18-.14-.26-.05-.08-.12-.15-.21-.19-.09-.06-.18-.09-.28-.09-.1-.02-.2-.02-.3.01l-.18.08c-.11.07-.2.16-.27.27l-.08.18c-.04.13-.04.27,0,.4h0Z"/>
  <path class="st0" d="M358.21,288.95c.97,0,.97-1.51,0-1.51s-.97,1.51,0,1.51h0Z"/>
  <path class="st0" d="M358.21,288.95c.97,0,.97-1.51,0-1.51s-.97,1.51,0,1.51h0Z"/>
  <path class="st0" d="M358.21,288.96c.97,0,.97-1.51,0-1.51s-.97,1.51,0,1.51h0Z"/>
  <path class="st0" d="M358.22,288.97c.97,0,.97-1.51,0-1.51s-.97,1.51,0,1.51h0Z"/>
  <path class="st0" d="M358.21,288.97c.97,0,.97-1.51,0-1.51s-.97,1.51,0,1.51h0Z"/>
  <path class="st0" d="M358.21,288.99c.97,0,.97-1.51,0-1.51s-.97,1.51,0,1.51h0Z"/>
  <g>
    <path class="st0" d="M345.18,305.85c-2.78.1-5.56.2-8.34.3v2.3c2.79.07,5.58.13,8.37.2-.91-.5-1.81-1-2.72-1.5.9-.43,1.8-.87,2.7-1.3Z"/>
    <path class="st0" d="M379.79,306.15c-1.22,0-2.45,0-3.67-.01-.61,0-1.22,0-1.83,0s-1.25-.08-1.83,0c-.04,0-.08,0-.12,0,.32.2.72.33,1.07.49.37.16.73.33,1.1.49-.38.25-.8.46-1.2.68-.21.12-.42.24-.64.36-.11.06-.21.12-.32.18-.07.04-.24.18-.32.18,2.58-.11,5.17-.23,7.75-.34v-2.01Z"/>
  </g>
</svg>