<?xml version="1.0" encoding="UTF-8"?>
<svg id="Layer_1" data-name="Layer 1" xmlns="http://www.w3.org/2000/svg" viewBox="0 0 383.812 595.276">
  <circle cx="50.729" cy="77.725" r="1.979" fill="#2db34a"/>
  <circle cx="63.095" cy="65.236" r="1.317" fill="#f7e42c"/>
  <circle cx="65.518" cy="85.641" r="1.979" fill="#2db34a"/>
  <circle cx="50.095" cy="100.243" r="1.348" fill="#f7e42c"/>
  <circle cx="109.747" cy="108.091" r="1.348" fill="#f7e42c"/>
  <circle cx="79.815" cy="106.913" r="1.317" fill="#f7e42c"/>
  <circle cx="67.842" cy="95.195" r="1.04" fill="#ee4498"/>
  <circle cx="71.003" cy="98.825" r=".689" fill="#231f20"/>
  <circle cx="59.382" cy="112.457" r="1.007" fill="#ee4498"/>
  <circle cx="55.765" cy="101.908" r=".689" fill="#231f20"/>
  <circle cx="49.446" cy="112.778" r=".689" fill="#231f20"/>
  <circle cx="67.141" cy="108.232" r=".689" fill="#231f20"/>
  <circle cx="55.414" cy="112.574" r=".895" fill="#07c0e2"/>
  <circle cx="59.392" cy="104.442" r=".462" fill="#f57f2c"/>
  <circle cx="67.205" cy="113.005" r=".462" fill="#f57f2c"/>
  <circle cx="76.739" cy="104.516" r=".895" fill="#07c0e2"/>
  <circle cx="73.66" cy="100.887" r=".462" fill="#f57f2c"/>
  <circle cx="71.416" cy="109.821" r=".689" fill="#231f20"/>
  <circle cx="63.661" cy="105.79" r="1.348" fill="#f7e42c"/>
  <circle cx="61.974" cy="89.499" r=".895" fill="#07c0e2"/>
  <circle cx="111.42" cy="68.321" r="1.979" fill="#2db34a"/>
  <circle cx="100.39" cy="104.733" r=".689" fill="#231f20"/>
  <circle cx="70.792" cy="113.008" r=".462" fill="#f57f2c"/>
  <circle cx="106.262" cy="113" r=".462" fill="#f57f2c"/>
  <circle cx="109.656" cy="95.083" r=".895" fill="#07c0e2"/>
  <circle cx="105.869" cy="109.719" r=".689" fill="#231f20"/>
  <circle cx="109.969" cy="112.775" r=".689" fill="#231f20"/>
  <circle cx="103.853" cy="100.888" r=".462" fill="#f57f2c"/>
  <circle cx="113.767" cy="106.042" r=".462" fill="#f57f2c"/>
  <circle cx="121.437" cy="101.64" r=".462" fill="#f57f2c"/>
  <circle cx="118.326" cy="112.577" r=".895" fill="#07c0e2"/>
  <circle cx="106.451" cy="98.63" r=".895" fill="#07c0e2"/>
  <circle cx="111.869" cy="92.703" r=".462" fill="#f57f2c"/>
  <circle cx="113.874" cy="112.777" r=".689" fill="#231f20"/>
  <circle cx="115.666" cy="89.468" r=".689" fill="#231f20"/>
  <circle cx="126.908" cy="113.008" r=".462" fill="#f57f2c"/>
  <circle cx="118.099" cy="104.236" r=".689" fill="#231f20"/>
  <circle cx="121.94" cy="112.774" r=".689" fill="#231f20"/>
  <circle cx="126.466" cy="99.936" r=".895" fill="#07c0e2"/>
  <circle cx="97.59" cy="107.671" r=".572" fill="#f57f2c"/>
  <circle cx="112.205" cy="85.765" r="1.04" fill="#ee4498"/>
  <circle cx="73.757" cy="67.678" r="1.979" fill="#2db34a"/>
  <circle cx="120.298" cy="77.073" r="1.979" fill="#2db34a"/>
  <circle cx="82.166" cy="75.451" r=".689" fill="#231f20"/>
  <circle cx="94.183" cy="73.831" r=".689" fill="#231f20"/>
  <circle cx="66.166" cy="68.309" r=".689" fill="#231f20"/>
  <circle cx="57.204" cy="77.639" r="1.04" fill="#ee4498"/>
  <circle cx="68.392" cy="52.446" r="1.04" fill="#ee4498"/>
  <circle cx="77.983" cy="59.19" r=".689" fill="#231f20"/>
  <circle cx="67.675" cy="63.765" r=".689" fill="#231f20"/>
  <circle cx="67.454" cy="58.959" r=".689" fill="#231f20"/>
  <circle cx="74.422" cy="52.104" r=".689" fill="#231f20"/>
  <circle cx="63.286" cy="57.327" r=".493" fill="#f57f2c"/>
  <circle cx="72.647" cy="63.553" r=".493" fill="#f57f2c"/>
  <circle cx="126.327" cy="77.466" r="1.04" fill="#ee4498"/>
  <circle cx="99.895" cy="59.25" r=".493" fill="#f57f2c"/>
  <circle cx="98.455" cy="62.919" r=".689" fill="#231f20"/>
  <circle cx="105.636" cy="63.886" r=".689" fill="#231f20"/>
  <circle cx="103.735" cy="67.984" r="1.04" fill="#ee4498"/>
  <circle cx="109.096" cy="51.913" r=".493" fill="#f57f2c"/>
  <circle cx="109.703" cy="63.715" r=".493" fill="#f57f2c"/>
  <circle cx="105.159" cy="52.453" r="1.04" fill="#ee4498"/>
  <circle cx="109.824" cy="59.032" r=".689" fill="#231f20"/>
  <circle cx="114.269" cy="57.312" r="1.04" fill="#ee4498"/>
  <circle cx="76.143" cy="75.609" r="1.04" fill="#ee4498"/>
  <circle cx="101.002" cy="75.621" r="1.04" fill="#ee4498"/>
  <circle cx="83.001" cy="73.508" r=".374" fill="#f57f2c"/>
  <circle cx="90.09" cy="75.592" r=".493" fill="#231f20"/>
  <circle cx="86.49" cy="73.6" r=".462" fill="#231f20"/>
  <circle cx="87.382" cy="75.554" r=".374" fill="#f57f2c"/>
  <circle cx="90.988" cy="73.507" r=".374" fill="#f57f2c"/>
  <circle cx="95.142" cy="75.461" r=".374" fill="#f57f2c"/>
  <line x1="50.767" y1="77.7" x2="65.518" y2="85.641" fill="none" stroke="#000" stroke-miterlimit="10" stroke-width=".12"/>
  <line x1="57.06" y1="77.661" x2="50.729" y2="77.661" fill="none" stroke="#000" stroke-miterlimit="10" stroke-width=".12"/>
  <line x1="63.121" y1="65.249" x2="57.034" y2="77.648" fill="none" stroke="#000" stroke-miterlimit="10" stroke-width=".12"/>
  <line x1="66.166" y1="68.309" x2="63.094" y2="65.237" fill="none" stroke="#000" stroke-miterlimit="10" stroke-width=".12"/>
  <line x1="73.757" y1="67.678" x2="63.095" y2="65.236" fill="none" stroke="#000" stroke-miterlimit="10" stroke-width=".12"/>
  <line x1="66.166" y1="68.309" x2="67.675" y2="63.765" fill="none" stroke="#000" stroke-miterlimit="10" stroke-width=".12"/>
  <line x1="72.647" y1="63.553" x2="66.166" y2="68.309" fill="none" stroke="#000" stroke-miterlimit="10" stroke-width=".12"/>
  <line x1="77.983" y1="59.19" x2="73.757" y2="67.678" fill="none" stroke="#000" stroke-miterlimit="10" stroke-width=".12"/>
  <line x1="72.647" y1="63.553" x2="73.757" y2="67.678" fill="none" stroke="#000" stroke-miterlimit="10" stroke-width=".12"/>
  <line x1="63.286" y1="57.327" x2="67.675" y2="63.765" fill="none" stroke="#000" stroke-miterlimit="10" stroke-width=".12"/>
  <line x1="63.095" y1="65.236" x2="67.454" y2="58.959" fill="none" stroke="#000" stroke-miterlimit="10" stroke-width=".12"/>
  <line x1="68.392" y1="52.446" x2="67.454" y2="58.959" fill="none" stroke="#000" stroke-miterlimit="10" stroke-width=".12"/>
  <line x1="74.366" y1="52.173" x2="63.286" y2="57.327" fill="none" stroke="#000" stroke-miterlimit="10" stroke-width=".12"/>
  <line x1="50.729" y1="77.725" x2="65.908" y2="68.408" fill="none" stroke="#000" stroke-miterlimit="10" stroke-width=".12"/>
  <line x1="61.974" y1="89.499" x2="57.06" y2="77.661" fill="none" stroke="#000" stroke-miterlimit="10" stroke-width=".12"/>
  <line x1="65.518" y1="85.641" x2="61.974" y2="89.499" fill="none" stroke="#000" stroke-miterlimit="10" stroke-width=".12"/>
  <line x1="61.974" y1="89.499" x2="55.765" y2="101.908" fill="none" stroke="#000" stroke-miterlimit="10" stroke-width=".12"/>
  <line x1="50.147" y1="100.325" x2="65.175" y2="92.591" fill="none" stroke="#000" stroke-miterlimit="10" stroke-width=".12"/>
  <line x1="55.765" y1="101.908" x2="49.446" y2="112.778" fill="none" stroke="#000" stroke-miterlimit="10" stroke-width=".12"/>
  <line x1="55.414" y1="112.542" x2="50.095" y2="100.243" fill="none" stroke="#000" stroke-miterlimit="10" stroke-width=".12"/>
  <line x1="55.765" y1="101.908" x2="50.042" y2="100.275" fill="none" stroke="#000" stroke-miterlimit="10" stroke-width=".12"/>
  <line x1="63.561" y1="105.901" x2="59.382" y2="112.666" fill="none" stroke="#000" stroke-miterlimit="10" stroke-width=".12"/>
  <line x1="67.842" y1="95.195" x2="63.561" y2="105.901" fill="none" stroke="#000" stroke-miterlimit="10" stroke-width=".12"/>
  <line x1="59.393" y1="104.442" x2="71.003" y2="98.63" fill="none" stroke="#000" stroke-miterlimit="10" stroke-width=".12"/>
  <line x1="63.561" y1="105.901" x2="59.392" y2="104.442" fill="none" stroke="#000" stroke-miterlimit="10" stroke-width=".12"/>
  <circle cx="63.226" cy="113.002" r=".462" fill="#f57f2c"/>
  <line x1="59.392" y1="104.442" x2="63.226" y2="113.002" fill="none" stroke="#231f20" stroke-miterlimit="10" stroke-width=".12"/>
  <line x1="67.205" y1="113.005" x2="71.591" y2="109.557" fill="none" stroke="#000" stroke-miterlimit="10" stroke-width=".12"/>
  <line x1="70.792" y1="112.931" x2="67.141" y2="108.232" fill="none"/>
  <line x1="71.416" y1="109.821" x2="73.66" y2="101.071" fill="none" stroke="#000" stroke-miterlimit="10" stroke-width=".12"/>
  <line x1="67.141" y1="108.232" x2="77.12" y2="104.284" fill="none" stroke="#000" stroke-miterlimit="10" stroke-width=".12"/>
  <line x1="71.416" y1="109.821" x2="67.141" y2="108.232" fill="none" stroke="#000" stroke-miterlimit="10" stroke-width=".12"/>
  <line x1="70.792" y1="113.008" x2="67.141" y2="108.232" fill="none" stroke="#000" stroke-miterlimit="10" stroke-width=".12"/>
  <line x1="97.544" y1="107.801" x2="76.201" y2="75.734" fill="none" stroke="#000" stroke-miterlimit="10" stroke-width=".12"/>
  <line x1="65.518" y1="85.641" x2="67.726" y2="94.924" fill="none" stroke="#000" stroke-miterlimit="10" stroke-width=".12"/>
  <line x1="73.607" y1="100.984" x2="90.09" y2="75.592" fill="none" stroke="#000" stroke-miterlimit="10" stroke-width=".12"/>
  <line x1="105.942" y1="109.589" x2="103.853" y2="100.888" fill="none" stroke="#000" stroke-miterlimit="10" stroke-width=".12"/>
  <line x1="106.262" y1="113" x2="109.78" y2="107.922" fill="none" stroke="#000" stroke-miterlimit="10" stroke-width=".12"/>
  <line x1="109.735" y1="112.567" x2="103.853" y2="101.351" fill="none" stroke="#000" stroke-miterlimit="10" stroke-width=".12"/>
  <line x1="100.44" y1="104.613" x2="109.78" y2="107.922" fill="none" stroke="#000" stroke-miterlimit="10" stroke-width=".12"/>
  <line x1="113.874" y1="112.777" x2="118.099" y2="104.236" fill="none" stroke="#000" stroke-miterlimit="10" stroke-width=".12"/>
  <line x1="118.4" y1="112.56" x2="109.539" y2="95.378" fill="none" stroke="#000" stroke-miterlimit="10" stroke-width=".12"/>
  <line x1="113.767" y1="106.042" x2="118.099" y2="104.236" fill="none" stroke="#000" stroke-miterlimit="10" stroke-width=".12"/>
  <line x1="106.451" y1="98.63" x2="118.099" y2="104.236" fill="none" stroke="#000" stroke-miterlimit="10" stroke-width=".12"/>
  <line x1="109.539" y1="95.378" x2="113.767" y2="106.042" fill="none" stroke="#000" stroke-miterlimit="10" stroke-width=".12"/>
  <line x1="117.628" y1="97.978" x2="117.628" y2="98.209" fill="none" stroke="#000" stroke-miterlimit="10" stroke-width=".12"/>
  <line x1="115.666" y1="89.695" x2="121.437" y2="101.64" fill="none" stroke="#000" stroke-miterlimit="10" stroke-width=".12"/>
  <line x1="126.466" y1="99.936" x2="121.95" y2="112.697" fill="none" stroke="#000" stroke-miterlimit="10" stroke-width=".12"/>
  <line x1="126.908" y1="113.008" x2="121.437" y2="101.64" fill="none" stroke="#000" stroke-miterlimit="10" stroke-width=".12"/>
  <line x1="111.869" y1="92.84" x2="126.456" y2="99.995" fill="none" stroke="#000" stroke-miterlimit="10" stroke-width=".12"/>
  <line x1="121.437" y1="101.64" x2="126.456" y2="99.995" fill="none" stroke="#000" stroke-miterlimit="10" stroke-width=".12"/>
  <line x1="101.002" y1="75.621" x2="65.518" y2="85.641" fill="none" stroke="#000" stroke-miterlimit="10" stroke-width=".12"/>
  <line x1="89.913" y1="75.601" x2="115.666" y2="89.695" fill="none" stroke="#000" stroke-miterlimit="10" stroke-width=".12"/>
  <line x1="94.183" y1="73.831" x2="76.739" y2="104.516" fill="none" stroke="#000" stroke-miterlimit="10" stroke-width=".12"/>
  <line x1="82.954" y1="73.526" x2="100.341" y2="104.6" fill="none" stroke="#000" stroke-miterlimit="10" stroke-width=".12"/>
  <line x1="82.166" y1="75.451" x2="111.869" y2="92.84" fill="none" stroke="#000" stroke-miterlimit="10" stroke-width=".12"/>
  <line x1="86.49" y1="73.769" x2="67.842" y2="95.195" fill="none" stroke="#000" stroke-miterlimit="10" stroke-width=".12"/>
  <line x1="71.028" y1="98.713" x2="103.853" y2="100.888" fill="none" stroke="#000" stroke-miterlimit="10" stroke-width=".12"/>
  <line x1="91.016" y1="73.567" x2="109.511" y2="95.298" fill="none" stroke="#000" stroke-miterlimit="10" stroke-width=".12"/>
  <line x1="101.002" y1="75.621" x2="103.853" y2="100.888" fill="none" stroke="#000" stroke-miterlimit="10" stroke-width=".12"/>
  <line x1="106.451" y1="98.63" x2="87.467" y2="75.609" fill="none" stroke="#000" stroke-miterlimit="10" stroke-width=".12"/>
  <line x1="101.002" y1="75.621" x2="79.965" y2="106.934" fill="none" stroke="#000" stroke-miterlimit="10" stroke-width=".12"/>
  <line x1="65.974" y1="87.441" x2="65.9" y2="87.441" fill="none" stroke="#000" stroke-miterlimit="10" stroke-width=".12"/>
  <line x1="65.518" y1="85.641" x2="79.965" y2="106.934" fill="none" stroke="#000" stroke-miterlimit="10" stroke-width=".12"/>
  <line x1="82.166" y1="75.451" x2="97.575" y2="107.778" fill="none" stroke="#000" stroke-miterlimit="10" stroke-width=".12"/>
  <line x1="86.49" y1="73.769" x2="103.853" y2="100.888" fill="none" stroke="#000" stroke-miterlimit="10" stroke-width=".12"/>
  <line x1="109.539" y1="95.378" x2="101.002" y2="75.621" fill="none" stroke="#000" stroke-miterlimit="10" stroke-width=".12"/>
  <line x1="115.393" y1="89.479" x2="120.298" y2="77.073" fill="none" stroke="#000" stroke-miterlimit="10" stroke-width=".12"/>
  <line x1="112.205" y1="85.765" x2="126.327" y2="77.466" fill="none" stroke="#000" stroke-miterlimit="10" stroke-width=".12"/>
  <line x1="126.306" y1="77.317" x2="111.42" y2="68.321" fill="none" stroke="#000" stroke-miterlimit="10" stroke-width=".12"/>
  <line x1="120.298" y1="77.073" x2="109.824" y2="59.032" fill="none" stroke="#000" stroke-miterlimit="10" stroke-width=".12"/>
  <line x1="111.42" y1="68.321" x2="114.269" y2="57.312" fill="none" stroke="#000" stroke-miterlimit="10" stroke-width=".12"/>
  <line x1="109.097" y1="52.03" x2="105.071" y2="52.494" fill="none" stroke="#000" stroke-miterlimit="10" stroke-width=".12"/>
  <line x1="109.824" y1="59.032" x2="109.097" y2="52.03" fill="none" stroke="#000" stroke-miterlimit="10" stroke-width=".12"/>
  <line x1="114.269" y1="57.312" x2="105.071" y2="52.494" fill="none" stroke="#000" stroke-miterlimit="10" stroke-width=".12"/>
  <line x1="109.703" y1="63.715" x2="114.269" y2="57.312" fill="none" stroke="#000" stroke-miterlimit="10" stroke-width=".12"/>
  <line x1="100.04" y1="59.304" x2="103.735" y2="67.984" fill="none" stroke="#000" stroke-miterlimit="10" stroke-width=".12"/>
  <line x1="98.455" y1="62.919" x2="105.636" y2="63.886" fill="none" stroke="#000" stroke-miterlimit="10" stroke-width=".12"/>
  <line x1="111.42" y1="68.321" x2="109.703" y2="63.715" fill="none" stroke="#000" stroke-miterlimit="10" stroke-width=".12"/>
  <line x1="105.636" y1="63.886" x2="103.735" y2="67.984" fill="none" stroke="#000" stroke-miterlimit="10" stroke-width=".12"/>
  <line x1="109.703" y1="63.715" x2="103.735" y2="67.984" fill="none" stroke="#000" stroke-miterlimit="10" stroke-width=".12"/>
  <line x1="105.636" y1="63.886" x2="111.42" y2="68.321" fill="none" stroke="#000" stroke-miterlimit="10" stroke-width=".12"/>
  <line x1="98.455" y1="62.919" x2="111.42" y2="68.321" fill="none" stroke="#000" stroke-miterlimit="10" stroke-width=".12"/>
  <line x1="103.735" y1="67.984" x2="114.63" y2="65.694" fill="none" stroke="#000" stroke-miterlimit="10" stroke-width=".12"/>
  <circle cx="114.762" cy="65.716" r=".493" fill="#f57f2c"/>
  <line x1="120.298" y1="77.073" x2="126.327" y2="77.466" fill="none"/>
  <line x1="112.205" y1="85.765" x2="115.666" y2="89.695" fill="none" stroke="#000" stroke-miterlimit="10" stroke-width=".12"/>
  <line x1="114.63" y1="65.694" x2="111.42" y2="68.321" fill="none" stroke="#000" stroke-miterlimit="10" stroke-width=".12"/>
  <line x1="114.63" y1="65.694" x2="120.298" y2="77.073" fill="none" stroke="#000" stroke-miterlimit="10" stroke-width=".12"/>
  <line x1="109.824" y1="59.032" x2="114.269" y2="57.312" fill="none" stroke="#000" stroke-miterlimit="10" stroke-width=".12"/>
  <line x1="100.04" y1="59.304" x2="98.455" y2="62.919" fill="none" stroke="#000" stroke-miterlimit="10" stroke-width=".12"/>
  <line x1="120.298" y1="77.073" x2="126.327" y2="77.466" fill="none" stroke="#000" stroke-miterlimit="10" stroke-width=".12"/>
  <line x1="101.002" y1="75.621" x2="111.869" y2="92.84" fill="none" stroke="#000" stroke-miterlimit="10" stroke-width=".12"/>
  <line x1="106.451" y1="98.63" x2="112.205" y2="85.765" fill="none" stroke="#000" stroke-miterlimit="10" stroke-width=".12"/>
  <line x1="115.733" y1="89.555" x2="76.739" y2="104.516" fill="none" stroke="#000" stroke-miterlimit="10" stroke-width=".12"/>
  <line x1="73.607" y1="100.984" x2="97.526" y2="107.724" fill="none" stroke="#000" stroke-miterlimit="10" stroke-width=".12"/>
  <line x1="71.003" y1="98.825" x2="100.329" y2="104.716" fill="none" stroke="#000" stroke-miterlimit="10" stroke-width=".12"/>
  <line x1="65.518" y1="85.641" x2="103.853" y2="100.888" fill="none" stroke="#000" stroke-miterlimit="10" stroke-width=".12"/>
  <line x1="61.974" y1="89.499" x2="82.166" y2="75.451" fill="none" stroke="#000" stroke-miterlimit="10" stroke-width=".12"/>
  <line x1="76.142" y1="75.569" x2="65.175" y2="92.591" fill="none" stroke="#000" stroke-miterlimit="10" stroke-width=".12"/>
  <circle cx="65.084" cy="92.703" r=".462" fill="#f57f2c"/>
  <line x1="100.395" y1="104.547" x2="103.853" y2="100.888" fill="none" stroke="#000" stroke-miterlimit="10" stroke-width=".12"/>
  <line x1="106.451" y1="98.63" x2="109.539" y2="95.378" fill="none" stroke="#000" stroke-miterlimit="10" stroke-width=".12"/>
  <line x1="111.869" y1="92.84" x2="115.666" y2="89.695" fill="none" stroke="#000" stroke-miterlimit="10" stroke-width=".12"/>
  <line x1="65.175" y1="92.591" x2="94.183" y2="73.831" fill="none" stroke="#000" stroke-miterlimit="10" stroke-width=".12"/>
  <line x1="79.815" y1="106.913" x2="100.39" y2="104.733" fill="none" stroke="#000" stroke-miterlimit="10" stroke-width=".12"/>
  <line x1="111.869" y1="92.84" x2="67.842" y2="95.195" fill="none" stroke="#000" stroke-miterlimit="10" stroke-width=".12"/>
  <line x1="65.175" y1="92.591" x2="115.666" y2="89.695" fill="none" stroke="#000" stroke-miterlimit="10" stroke-width=".12"/>
  <line x1="61.974" y1="89.499" x2="112.205" y2="85.765" fill="none" stroke="#000" stroke-miterlimit="10" stroke-width=".12"/>
  <line x1="59.392" y1="104.442" x2="101.002" y2="75.621" fill="none" stroke="#000" stroke-miterlimit="10" stroke-width=".12"/>
  <line x1="76.739" y1="104.516" x2="76.142" y2="75.569" fill="none" stroke="#000" stroke-miterlimit="10" stroke-width=".12"/>
  <line x1="100.329" y1="104.716" x2="76.739" y2="104.516" fill="none" stroke="#000" stroke-miterlimit="10" stroke-width=".12"/>
  <line x1="109.502" y1="95.314" x2="76.143" y2="75.609" fill="none" stroke="#000" stroke-miterlimit="10" stroke-width=".12"/>
  <line x1="82.166" y1="75.451" x2="73.66" y2="101.071" fill="none" stroke="#000" stroke-miterlimit="10" stroke-width=".12"/>
  <line x1="76.142" y1="75.569" x2="67.726" y2="94.924" fill="none" stroke="#000" stroke-miterlimit="10" stroke-width=".12"/>
  <line x1="101.002" y1="75.621" x2="106.451" y2="98.63" fill="none" stroke="#000" stroke-miterlimit="10" stroke-width=".12"/>
  <line x1="86.49" y1="73.769" x2="71.028" y2="98.713" fill="none" stroke="#000" stroke-miterlimit="10" stroke-width=".12"/>
  <line x1="91.016" y1="73.567" x2="112.205" y2="85.765" fill="none" stroke="#000" stroke-miterlimit="10" stroke-width=".12"/>
  <line x1="94.183" y1="73.831" x2="103.853" y2="100.888" fill="none" stroke="#000" stroke-miterlimit="10" stroke-width=".12"/>
  <line x1="79.965" y1="106.934" x2="115.666" y2="89.695" fill="none" stroke="#000" stroke-miterlimit="10" stroke-width=".12"/>
  <line x1="112.205" y1="85.765" x2="121.437" y2="101.64" fill="none" stroke="#000" stroke-miterlimit="10" stroke-width=".12"/>
  <line x1="82.166" y1="75.451" x2="50.095" y2="100.243" fill="none" stroke="#000" stroke-miterlimit="10" stroke-width=".12"/>
  <line x1="61.974" y1="89.499" x2="65.175" y2="92.591" fill="none" stroke="#000" stroke-miterlimit="10" stroke-width=".12"/>
  <line x1="67.726" y1="94.924" x2="70.929" y2="98.795" fill="none" stroke="#000" stroke-miterlimit="10" stroke-width=".12"/>
  <line x1="73.592" y1="100.933" x2="76.922" y2="104.334" fill="none" stroke="#000" stroke-miterlimit="10" stroke-width=".12"/>
  <line x1="105.942" y1="109.589" x2="109.78" y2="107.922" fill="none" stroke="#000" stroke-miterlimit="10" stroke-width=".12"/>
  <line x1="63.286" y1="57.327" x2="66.166" y2="68.309" fill="none" stroke="#000" stroke-miterlimit="10" stroke-width=".12"/>
  <line x1="67.675" y1="63.765" x2="73.757" y2="67.678" fill="none" stroke="#000" stroke-miterlimit="10" stroke-width=".12"/>
  <line x1="72.647" y1="63.553" x2="78.854" y2="62.98" fill="none" stroke="#000" stroke-miterlimit="10" stroke-width=".12"/>
  <circle cx="78.884" cy="62.964" r=".493" fill="#f57f2c"/>
  <line x1="78.854" y1="62.98" x2="65.908" y2="68.408" fill="none"/>
  <line x1="63.095" y1="65.236" x2="67.675" y2="63.765" fill="none"/>
  <line x1="63.286" y1="57.327" x2="67.454" y2="58.959" fill="none"/>
  <line x1="67.454" y1="58.959" x2="63.286" y2="57.327" fill="none"/>
  <line x1="68.392" y1="52.446" x2="63.095" y2="65.236" fill="none" stroke="#231f20" stroke-miterlimit="10" stroke-width=".12"/>
  <line x1="67.454" y1="58.959" x2="63.286" y2="57.327" fill="none" stroke="#000" stroke-miterlimit="10" stroke-width=".12"/>
  <line x1="109.097" y1="52.03" x2="114.63" y2="65.694" fill="none" stroke="#000" stroke-miterlimit="10" stroke-width=".12"/>
  <line x1="114.762" y1="65.716" x2="109.703" y2="63.715" fill="none" stroke="#000" stroke-miterlimit="10" stroke-width=".12"/>
  <line x1="63.095" y1="65.236" x2="67.675" y2="63.765" fill="none" stroke="#000" stroke-miterlimit="10" stroke-width=".12"/>
  <line x1="50.729" y1="77.725" x2="67.675" y2="63.765" fill="none" stroke="#000" stroke-miterlimit="10" stroke-width=".12"/>
  <line x1="118.4" y1="112.56" x2="113.767" y2="106.042" fill="none" stroke="#000" stroke-miterlimit="10" stroke-width=".12"/>
  <line x1="105.869" y1="109.719" x2="109.811" y2="112.705" fill="none" stroke="#000" stroke-miterlimit="10" stroke-width=".12"/>
  <line x1="73.66" y1="101.534" x2="67.205" y2="113.005" fill="none" stroke="#000" stroke-miterlimit="10" stroke-width=".12"/>
  <line x1="82.166" y1="75.451" x2="83.001" y2="73.508" fill="none" stroke="#000" stroke-miterlimit="10" stroke-width=".12"/>
</svg>